<?xml version="1.0" encoding="UTF-8" standalone="no"?> <!-- Created with Vectornator for iOS (http://vectornator.io/) --><!DOCTYPE svg PUBLIC "-//W3C//DTD SVG 1.1//EN" "http://www.w3.org/Graphics/SVG/1.1/DTD/svg11.dtd">
<svg style="fill-rule:evenodd;clip-rule:evenodd;stroke-linecap:round;stroke-linejoin:round;" xmlns:vectornator="http://vectornator.io" xmlns:xlink="http://www.w3.org/1999/xlink" xmlns="http://www.w3.org/2000/svg" xml:space="preserve" version="1.1" viewBox="0 0 1024 1024">
<metadata>
<vectornator:setting key="DisplayWhiteBackground" value="0"/>
<vectornator:setting key="RulersVisible" value="1"/>
<vectornator:setting key="SnapToEdges" value="0"/>
<vectornator:setting key="Units" value="Pixels"/>
<vectornator:setting key="DynamicGuides" value="0"/>
<vectornator:setting key="SnapToPoints" value="0"/>
<vectornator:setting key="SnapToGrid" value="0"/>
<vectornator:setting key="SnapToGuides" value="0"/>
<vectornator:setting key="ShowGrid" value="0"/>
<vectornator:setting key="GridSpacing" value="36"/>
</metadata>
<defs>
<radialGradient cx="511.73" r="510" id="RadialGradient" gradientUnits="userSpaceOnUse" gradientTransform="matrix(1 0 0 1 0 0)" cy="511.312">
<stop stop-opacity="0.344929" stop-color="#5e233b" offset="0.796371"/>
<stop stop-color="#5e233b" offset="1"/>
</radialGradient>
<linearGradient y1="645.484" id="LinearGradient" x1="400.125" y2="645.484" x2="429.594" gradientUnits="userSpaceOnUse" gradientTransform="matrix(1 0 0 1 -118.735 -67.4788)">
<stop stop-color="#8b5069" offset="0.40121"/>
<stop stop-color="#5e233b" offset="0.649194"/>
<stop stop-color="#5e233b" offset="1"/>
</linearGradient>
<linearGradient y1="645.484" id="LinearGradient_2" x1="400.125" y2="645.484" x2="429.594" gradientUnits="userSpaceOnUse" gradientTransform="matrix(1 0 0 1 -74.5316 -67.4788)">
<stop stop-color="#8b5069" offset="0.40121"/>
<stop stop-color="#5e233b" offset="0.649194"/>
<stop stop-color="#5e233b" offset="1"/>
</linearGradient>
<linearGradient y1="645.484" id="LinearGradient_3" x1="400.125" y2="645.484" x2="429.594" gradientUnits="userSpaceOnUse" gradientTransform="matrix(1 0 0 1 -104 -16.6976)">
<stop stop-color="#8b5069" offset="0.40121"/>
<stop stop-color="#5e233b" offset="0.649194"/>
<stop stop-color="#5e233b" offset="1"/>
</linearGradient>
<linearGradient y1="645.484" id="LinearGradient_4" x1="400.125" y2="645.484" x2="429.594" gradientUnits="userSpaceOnUse" gradientTransform="matrix(1 0 0 1 -59.7973 -16.6976)">
<stop stop-color="#8b5069" offset="0.40121"/>
<stop stop-color="#5e233b" offset="0.649194"/>
<stop stop-color="#5e233b" offset="1"/>
</linearGradient>
<linearGradient y1="645.484" id="LinearGradient_5" x1="400.125" y2="645.484" x2="429.594" gradientUnits="userSpaceOnUse" gradientTransform="matrix(1 0 0 1 -15.5941 -16.6976)">
<stop stop-color="#8b5069" offset="0.40121"/>
<stop stop-color="#5e233b" offset="0.649194"/>
<stop stop-color="#5e233b" offset="1"/>
</linearGradient>
<linearGradient y1="645.484" id="LinearGradient_6" x1="400.125" y2="645.484" x2="429.594" gradientUnits="userSpaceOnUse" gradientTransform="matrix(1 0 0 1 28.609 -16.6976)">
<stop stop-color="#8b5069" offset="0.40121"/>
<stop stop-color="#5e233b" offset="0.649194"/>
<stop stop-color="#5e233b" offset="1"/>
</linearGradient>
<linearGradient y1="645.484" id="LinearGradient_7" x1="400.125" y2="645.484" x2="429.594" gradientUnits="userSpaceOnUse" gradientTransform="matrix(1 0 0 1 -89.266 34.0837)">
<stop stop-color="#8b5069" offset="0.40121"/>
<stop stop-color="#5e233b" offset="0.649194"/>
<stop stop-color="#5e233b" offset="1"/>
</linearGradient>
<linearGradient y1="645.484" id="LinearGradient_8" x1="400.125" y2="645.484" x2="429.594" gradientUnits="userSpaceOnUse" gradientTransform="matrix(1 0 0 1 -45.0629 34.0837)">
<stop stop-color="#8b5069" offset="0.40121"/>
<stop stop-color="#5e233b" offset="0.649194"/>
<stop stop-color="#5e233b" offset="1"/>
</linearGradient>
<linearGradient y1="645.484" id="LinearGradient_9" x1="400.125" y2="645.484" x2="429.594" gradientUnits="userSpaceOnUse" gradientTransform="matrix(1 0 0 1 -0.859772 34.0837)">
<stop stop-color="#8b5069" offset="0.40121"/>
<stop stop-color="#5e233b" offset="0.649194"/>
<stop stop-color="#5e233b" offset="1"/>
</linearGradient>
<linearGradient y1="645.484" id="LinearGradient_10" x1="400.125" y2="645.484" x2="429.594" gradientUnits="userSpaceOnUse" gradientTransform="matrix(1 0 0 1 43.3434 34.1669)">
<stop stop-color="#8b5069" offset="0.40121"/>
<stop stop-color="#5e233b" offset="0.649194"/>
<stop stop-color="#5e233b" offset="1"/>
</linearGradient>
<linearGradient y1="645.484" id="LinearGradient_11" x1="400.125" y2="645.484" x2="429.594" gradientUnits="userSpaceOnUse" gradientTransform="matrix(1 0 0 1 87.5465 34.1669)">
<stop stop-color="#8b5069" offset="0.40121"/>
<stop stop-color="#5e233b" offset="0.649194"/>
<stop stop-color="#5e233b" offset="1"/>
</linearGradient>
<linearGradient y1="645.484" id="LinearGradient_12" x1="400.125" y2="645.484" x2="429.594" gradientUnits="userSpaceOnUse" gradientTransform="matrix(1 0 0 1 131.75 34.1669)">
<stop stop-color="#8b5069" offset="0.40121"/>
<stop stop-color="#5e233b" offset="0.649194"/>
<stop stop-color="#5e233b" offset="1"/>
</linearGradient>
<linearGradient y1="645.484" id="LinearGradient_13" x1="400.125" y2="645.484" x2="429.594" gradientUnits="userSpaceOnUse" gradientTransform="matrix(1 0 0 1 -74.5316 84.8649)">
<stop stop-color="#8b5069" offset="0.40121"/>
<stop stop-color="#5e233b" offset="0.649194"/>
<stop stop-color="#5e233b" offset="1"/>
</linearGradient>
<linearGradient y1="645.484" id="LinearGradient_14" x1="400.125" y2="645.484" x2="429.594" gradientUnits="userSpaceOnUse" gradientTransform="matrix(1 0 0 1 -30.3285 84.9481)">
<stop stop-color="#8b5069" offset="0.40121"/>
<stop stop-color="#5e233b" offset="0.649194"/>
<stop stop-color="#5e233b" offset="1"/>
</linearGradient>
<linearGradient y1="645.484" id="LinearGradient_15" x1="400.125" y2="645.484" x2="429.594" gradientUnits="userSpaceOnUse" gradientTransform="matrix(1 0 0 1 13.8746 84.8649)">
<stop stop-color="#8b5069" offset="0.40121"/>
<stop stop-color="#5e233b" offset="0.649194"/>
<stop stop-color="#5e233b" offset="1"/>
</linearGradient>
<linearGradient y1="645.484" id="LinearGradient_16" x1="400.125" y2="645.484" x2="429.594" gradientUnits="userSpaceOnUse" gradientTransform="matrix(1 0 0 1 58.0777 84.9481)">
<stop stop-color="#8b5069" offset="0.40121"/>
<stop stop-color="#5e233b" offset="0.649194"/>
<stop stop-color="#5e233b" offset="1"/>
</linearGradient>
<linearGradient y1="645.484" id="LinearGradient_17" x1="400.125" y2="645.484" x2="429.594" gradientUnits="userSpaceOnUse" gradientTransform="matrix(1 0 0 1 102.281 84.9481)">
<stop stop-color="#8b5069" offset="0.40121"/>
<stop stop-color="#5e233b" offset="0.649194"/>
<stop stop-color="#5e233b" offset="1"/>
</linearGradient>
<linearGradient y1="645.484" id="LinearGradient_18" x1="400.125" y2="645.484" x2="429.594" gradientUnits="userSpaceOnUse" gradientTransform="matrix(1 0 0 1 146.484 84.8649)">
<stop stop-color="#8b5069" offset="0.40121"/>
<stop stop-color="#5e233b" offset="0.649194"/>
<stop stop-color="#5e233b" offset="1"/>
</linearGradient>
<linearGradient y1="645.484" id="LinearGradient_19" x1="400.125" y2="645.484" x2="429.594" gradientUnits="userSpaceOnUse" gradientTransform="matrix(1 0 0 1 190.687 84.8649)">
<stop stop-color="#8b5069" offset="0.40121"/>
<stop stop-color="#5e233b" offset="0.649194"/>
<stop stop-color="#5e233b" offset="1"/>
</linearGradient>
<linearGradient y1="645.484" id="LinearGradient_20" x1="400.125" y2="645.484" x2="429.594" gradientUnits="userSpaceOnUse" gradientTransform="matrix(1 0 0 1 234.89 84.8649)">
<stop stop-color="#8b5069" offset="0.40121"/>
<stop stop-color="#5e233b" offset="0.649194"/>
<stop stop-color="#5e233b" offset="1"/>
</linearGradient>
<linearGradient y1="450.341" id="LinearGradient_21" x1="477.72" y2="450.341" x2="546.28" gradientUnits="userSpaceOnUse" gradientTransform="matrix(1 0 0 1 0 0)">
<stop stop-color="#8b5069" offset="0.40121"/>
<stop stop-color="#5e233b" offset="0.649194"/>
<stop stop-color="#5e233b" offset="1"/>
</linearGradient>
</defs>
<g id="Logo" vectornator:layerName="Logo">
<path d="M1.72993+511.312C1.72993+229.647+230.065+1.31185+511.73+1.31185C793.395+1.31185+1021.73+229.647+1021.73+511.312C1021.73+639.801+975.274+758.409+896.855+848.09C894.846+850.387+892.77+852.611+890.65+854.788C885.07+860.521+879.188+865.937+873.438+871.554C856.074+888.521+837.873+904.796+818.395+919.337C732.77+983.259+626.778+1021.31+511.73+1021.31C388.339+1021.31+274.555+977.667+185.979+904.98C175.927+896.731+166.136+888.196+156.694+879.309C145.832+869.086+135.43+858.396+125.619+847.137C47.5555+757.544+1.72993+639.476+1.72993+511.312Z" opacity="0" fill="url(#RadialGradient)"/>
<path d="M678.969+190C604.103+190+555.314+235.164+543.35+300.825C543.308+301.053+550.54+285.628+550.544+285.859C550.875+284.1+570.083+257.194+570.498+255.464C589.676+242.244+595.05+224.08+653.896+220.451C700.849+217.556+744.605+251.817+758.906+292.812C765.156+306.582+768.719+321.776+768.719+337.812C768.719+386.977+736.02+428.602+690.781+443.25C760.111+437.643+814.531+383.272+814.531+316.906C814.531+246.811+753.834+190+678.969+190Z" opacity="1" fill="#475175"/>
<path d="M344.993+190.157C419.859+190.157+468.622+235.657+480.586+301.318C480.627+301.546+473.395+286.121+473.391+286.352C473.06+284.593+453.852+257.687+453.438+255.957C434.259+242.737+428.885+224.573+370.039+220.944C323.087+218.049+279.331+252.31+265.029+293.306C258.78+307.075+255.217+322.269+255.217+338.306C255.217+387.47+287.916+429.095+333.154+443.743C263.825+438.136+209.404+383.765+209.404+317.399C209.404+281.327+229.788+246.351+255.973+222.577C269.539+210.261+281.913+202.032+299.629+195.93C314.166+190.922+328.614+190.157+344.993+190.157Z" opacity="1" fill="#475175"/>
<g opacity="1">
<path stroke="#5e233b" stroke-width="4" d="M768+495.323C808.486+512+848.012+534.837+848.43+594.708C848.585+616.929+845.384+637.118+840.497+655.335C828.298+700.805+805.597+733.991+798.371+755.823" fill="none" stroke-linecap="round" opacity="1" stroke-linejoin="round"/>
<path stroke="#5e233b" stroke-width="4" d="M735.018+521.698C754.249+537.542+767.751+559.847+767.995+594.708C768.15+616.929+764.949+637.118+760.061+655.335C747.863+700.805+725.162+733.991+717.936+755.823" fill="none" stroke-linecap="round" opacity="1" stroke-linejoin="round"/>
<path d="M734.997+521.163L744.307+514.271L752.822+508.089L760.728+502.185L766.82+495.687L774.483+498.901L788.21+504.953L801.215+512.14L814.303+521.548L824.915+531.827L832.34+542.184L839.078+554.37L843.962+569.729L846.964+586.602L846.987+601.237L846.215+613.978L845.151+626.441L842.416+644.071L837.856+661.854L834.056+675.381L827.673+689.212L820.833+705.779L813.69+721.281L806.09+736.48L802.221+742.407L801.305+746.496L797.125+754.032L792.387+754.042L780.242+753.975L768.483+753.87L757.333+753.836L748.24+753.796L740.46+753.833L727.021+754.096L716.309+754.523L721.937+747.753L724.401+742.501L727.578+735.239L732.311+725.514L736.136+717.863L740.156+709.434C740.156+709.434+743.009+703.21+743.657+702.367C744.306+701.524+748.161+693.022+748.161+693.022L752.095+682.921L755.919+672.431L759.114+662.177L762.851+651.072L765.084+638.448L767.25+627.178L768.23+616.491L769.073+605.252L769.541+594.107L768.792+582.587L767.106+571.723L764.297+562.263L761.674+554.865L757.46+547.091L753.151+539.411L747.626+532.481L741.538+526.018L734.997+521.163Z" opacity="1" fill="#5e233b"/>
</g>
<g opacity="1">
<path d="M296.14+552.615C287.361+557.722+281.39+567.101+281.39+577.99C281.39+588.879+287.361+598.289+296.14+603.396C304.906+598.285+310.859+588.869+310.859+577.99C310.859+567.111+304.906+557.726+296.14+552.615Z" opacity="1" fill="url(#LinearGradient)"/>
<path d="M340.343+552.615C331.564+557.722+325.593+567.101+325.593+577.99C325.593+588.879+331.564+598.289+340.343+603.396C349.11+598.285+355.062+588.869+355.062+577.99C355.062+567.111+349.109+557.726+340.343+552.615Z" opacity="1" fill="url(#LinearGradient_2)"/>
<path d="M310.875+603.396C302.095+608.504+296.125+617.882+296.125+628.771C296.125+639.66+302.095+649.07+310.875+654.177C319.641+649.067+325.593+639.65+325.593+628.771C325.593+617.892+319.641+608.507+310.875+603.396Z" opacity="1" fill="url(#LinearGradient_3)"/>
<path d="M355.078+603.396C346.298+608.504+340.328+617.882+340.328+628.771C340.328+639.66+346.298+649.07+355.078+654.177C363.844+649.067+369.796+639.65+369.796+628.771C369.796+617.892+363.844+608.507+355.078+603.396Z" opacity="1" fill="url(#LinearGradient_4)"/>
<path d="M399.281+603.396C390.502+608.504+384.531+617.882+384.531+628.771C384.531+639.66+390.502+649.07+399.281+654.177C408.047+649.067+414+639.65+414+628.771C414+617.892+408.047+608.507+399.281+603.396Z" opacity="1" fill="url(#LinearGradient_5)"/>
<path d="M443.484+603.396C434.705+608.504+428.734+617.882+428.734+628.771C428.734+639.66+434.705+649.07+443.484+654.177C452.25+649.067+458.203+639.65+458.203+628.771C458.203+617.892+452.25+608.507+443.484+603.396Z" opacity="1" fill="url(#LinearGradient_6)"/>
<path d="M325.609+654.177C316.83+659.285+310.859+668.664+310.859+679.552C310.859+690.441+316.83+699.851+325.609+704.959C334.375+699.848+340.328+690.431+340.328+679.552C340.328+668.674+334.375+659.288+325.609+654.177Z" opacity="1" fill="url(#LinearGradient_7)"/>
<path d="M369.812+654.177C361.033+659.285+355.062+668.664+355.062+679.552C355.062+690.441+361.033+699.851+369.812+704.959C378.578+699.848+384.531+690.431+384.531+679.552C384.531+668.674+378.578+659.288+369.812+654.177Z" opacity="1" fill="url(#LinearGradient_8)"/>
<path d="M414.015+654.177C405.236+659.285+399.265+668.664+399.265+679.552C399.265+690.441+405.236+699.851+414.015+704.959C422.781+699.848+428.734+690.431+428.734+679.552C428.734+668.674+422.781+659.288+414.015+654.177Z" opacity="1" fill="url(#LinearGradient_9)"/>
<path d="M458.218+654.261C449.439+659.368+443.468+668.747+443.468+679.636C443.468+690.524+449.439+699.934+458.218+705.042C466.985+699.931+472.937+690.515+472.937+679.636C472.937+668.757+466.984+659.371+458.218+654.261Z" opacity="1" fill="url(#LinearGradient_10)"/>
<path d="M502.421+654.261C493.642+659.368+487.671+668.747+487.671+679.636C487.671+690.524+493.642+699.934+502.421+705.042C511.188+699.931+517.14+690.515+517.14+679.636C517.14+668.757+511.188+659.371+502.421+654.261Z" opacity="1" fill="url(#LinearGradient_11)"/>
<path d="M546.625+654.261C537.845+659.368+531.875+668.747+531.875+679.636C531.875+690.524+537.845+699.934+546.625+705.042C555.391+699.931+561.343+690.515+561.343+679.636C561.343+668.757+555.391+659.371+546.625+654.261Z" opacity="1" fill="url(#LinearGradient_12)"/>
<path d="M340.343+704.959C331.564+710.066+325.593+719.445+325.593+730.334C325.593+741.222+331.564+750.632+340.343+755.74C349.11+750.629+355.062+741.213+355.062+730.334C355.062+719.455+349.109+710.07+340.343+704.959Z" opacity="1" fill="url(#LinearGradient_13)"/>
<path d="M384.546+705.042C375.767+710.149+369.796+719.528+369.796+730.417C369.796+741.306+375.767+750.716+384.546+755.823C393.313+750.712+399.265+741.296+399.265+730.417C399.265+719.538+393.313+710.153+384.546+705.042Z" opacity="1" fill="url(#LinearGradient_14)"/>
<path d="M428.75+704.959C419.97+710.066+414+719.445+414+730.334C414+741.222+419.97+750.632+428.75+755.74C437.516+750.629+443.468+741.213+443.468+730.334C443.468+719.455+437.516+710.07+428.75+704.959Z" opacity="1" fill="url(#LinearGradient_15)"/>
<path d="M472.953+705.042C464.173+710.149+458.203+719.528+458.203+730.417C458.203+741.306+464.173+750.716+472.953+755.823C481.719+750.712+487.671+741.296+487.671+730.417C487.671+719.538+481.719+710.153+472.953+705.042Z" opacity="1" fill="url(#LinearGradient_16)"/>
<path d="M517.156+705.042C508.377+710.149+502.406+719.528+502.406+730.417C502.406+741.306+508.377+750.716+517.156+755.823C525.922+750.712+531.875+741.296+531.875+730.417C531.875+719.538+525.922+710.153+517.156+705.042Z" opacity="1" fill="url(#LinearGradient_17)"/>
<path d="M561.359+704.959C552.58+710.066+546.609+719.445+546.609+730.334C546.609+741.222+552.58+750.632+561.359+755.74C570.125+750.629+576.078+741.213+576.078+730.334C576.078+719.455+570.125+710.07+561.359+704.959Z" opacity="1" fill="url(#LinearGradient_18)"/>
<path d="M605.562+704.959C596.783+710.066+590.812+719.445+590.812+730.334C590.812+741.222+596.783+750.632+605.562+755.74C614.328+750.629+620.281+741.213+620.281+730.334C620.281+719.455+614.328+710.07+605.562+704.959Z" opacity="1" fill="url(#LinearGradient_19)"/>
<path d="M649.765+704.959C640.986+710.066+635.015+719.445+635.015+730.334C635.015+741.222+640.986+750.632+649.765+755.74C658.531+750.629+664.484+741.213+664.484+730.334C664.484+719.455+658.531+710.07+649.765+704.959Z" opacity="1" fill="url(#LinearGradient_20)"/>
</g>
<g opacity="1">
<path stroke="#8b5069" stroke-width="4" d="M256.435+495.32C215.949+511.997+176.424+534.834+176.005+594.705C175.463+672.388+216.659+721.47+226.781+752.049" fill="none" stroke-linecap="round" opacity="1" stroke-linejoin="round"/>
<path stroke="#8b5069" stroke-width="4" d="M289.948+522.796C270.205+538.687+256.253+561.151+256.005+596.593C255.462+674.276+296.659+723.358+306.78+753.938" fill="none" stroke-linecap="round" opacity="1" stroke-linejoin="round"/>
<path d="M288.995+522.98L256.54+496.935L238.559+503.588L219.403+514.516L201.296+529.308L185.903+550.957L179.067+570.443L177.064+606.666L180.855+640.561L192.418+677.423L207.207+709.201L228.258+750.363L231.463+750.95L238.091+751.812L249.807+753.006L262.714+753.501L269.631+753.685L303.694+754.304L308.502+754.54L298.587+738.079L286.364+715.521L270.435+680.642L260.088+648.322L254.799+600.935L257.978+569.376L273.868+537.467" opacity="1" fill="#8b5069"/>
</g>
<path stroke="#722a48" stroke-width="2" d="M478.025+887.871C487.136+895.062+498.578+900.464+511.085+900.464C533.777+900.464+557.586+884.735+562.329+864.275C564.037+856.909+564.667+854.092+565.686+847.84C565.686+847.84+620.756+831.029+736.993+831.029C830.293+831.029+894.143+847.34+894.143+847.34C808.202+944.412+686.093+1008.59+548.975+1018.63C536.445+1019.55+523.781+1019.91+511.016+1019.91C499.303+1019.91+487.678+1019.67+476.161+1018.9C337.681+1009.59+214.291+945.063+127.693+847.34C127.693+847.34+192.003+831.029+285.303+831.029C320.752+831.029+350.609+832.408+374.986+834.324C430.543+838.691+458.306+846.098+458.306+846.098C458.306+846.098+459.036+850.187+460.568+858.073C463.257+871.918+470.789+882.159+478.025+887.871" fill="#722a48" stroke-linecap="round" opacity="1" stroke-linejoin="round"/>
<path stroke="#8b5069" stroke-width="2" d="M475.047+1018.81L458.287+846.035C458.287+846.035+401.423+829.754+285.185+829.754C191.886+829.754+127.093+846.885+127.093+846.885C168.377+893.472+218.554+933.038+274.301+962.139C322.306+987.199+373.693+1004.87+428.947+1013.55C436.427+1014.72+444.508+1015.87+452.658+1016.79C460.193+1017.65+467.793+1018.31+474.9+1018.83" fill="#8b5069" stroke-linecap="round" opacity="1" stroke-linejoin="round"/>
<path stroke="#5e233b" stroke-width="2" d="M549.742+1018.58L565.655+847.791C565.655+847.791+592.826+839.296+645.336+834.596C670.827+832.314+702.568+830.589+740.555+830.589C833.854+830.589+896.116+847.548+896.116+847.548C810.019+944.706+687.284+1008.69+549.779+1018.57" fill="#5e233b" stroke-linecap="round" opacity="1" stroke-linejoin="round"/>
<path stroke="#5e233b" stroke-width="4" d="M441.819+540.284C398.499+565.054+332.528+545.898+319.719+539.608C285.867+522.985+250.994+491.643+234.993+471.481C219.738+452.26+203.899+430.287+191.565+395.124C173.916+344.808+175.633+333.201+175.604+314.78C175.562+287.647+180.231+250.265+207.101+214.625C212.772+207.104+217.919+204.063+223.097+194.141C226.23+187.622+225.534+180.652+224.868+171.063C224.6+167.196+224.24+162.719+220.13+149.561C216.364+137.504+208.918+118.88+208.918+118.88C208.918+118.88+217.95+131.678+227.478+139.794C237.006+147.91+247.03+151.344+247.03+151.344C247.03+151.344+257.746+156.797+267.135+152.965C268.984+152.128+270.624+150.896+272.407+149.919C284.217+143.451+297.228+138.606+313.196+133.978C375.688+115.866+455.446+164.683+512+164.683C568.554+164.683+648.312+115.866+710.804+133.978C726.772+138.606+739.783+143.451+751.593+149.919C753.376+150.896+755.016+152.128+756.865+152.965C766.254+156.797+776.97+151.344+776.97+151.344C776.97+151.344+786.994+147.91+796.522+139.794C806.05+131.678+815.082+118.88+815.082+118.88C815.082+118.88+807.636+137.504+803.87+149.561C799.76+162.719+799.4+167.196+799.132+171.063C798.466+180.652+797.77+187.622+800.903+194.141C806.081+204.063+811.228+207.104+816.899+214.625C843.769+250.265+848.438+287.647+848.396+314.78C848.367+333.201+850.084+344.808+832.435+395.124C820.101+430.287+804.262+452.26+789.007+471.481C773.006+491.643+738.133+522.985+704.281+539.608C691.472+545.898+625.501+565.054+582.181+540.284" fill="none" stroke-linecap="round" opacity="1" stroke-linejoin="round"/>
<g opacity="1">
<path stroke="#722a48" stroke-width="4" d="M485.211+335.735C485.211+272.441+433.9+221.13+370.605+221.13C307.311+221.13+256+272.441+256+335.735C256+399.03+307.311+450.341+370.605+450.341C433.9+450.341+485.211+399.03+485.211+335.735Z" fill="none" stroke-linecap="round" opacity="1" stroke-linejoin="round"/>
<path stroke="#722a48" stroke-width="4" d="M485.211+335.736C485.211+249.287+423.722+188.901+345.577+188.813C336.653+188.803+290.324+187.341+257.017+220.785" fill="none" stroke-linecap="round" opacity="1" stroke-linejoin="round"/>
<path stroke="#722a48" stroke-width="4" d="M370.605+375.49C370.605+353.541+352.812+335.747+330.863+335.747C308.914+335.747+291.12+353.541+291.12+375.49C291.12+397.439+308.914+415.232+330.863+415.232C352.812+415.232+370.605+397.439+370.605+375.49Z" fill="#722a48" stroke-linecap="round" opacity="1" stroke-linejoin="round"/>
</g>
<g opacity="1">
<path stroke="#722a48" stroke-width="4" d="M538.789+335.735C538.789+272.441+590.1+221.13+653.395+221.13C716.689+221.13+768+272.441+768+335.735C768+399.03+716.689+450.341+653.395+450.341C590.1+450.341+538.789+399.03+538.789+335.735Z" fill="none" stroke-linecap="round" opacity="1" stroke-linejoin="round"/>
<path stroke="#722a48" stroke-width="4" d="M538.789+335.736C538.789+249.287+600.278+188.901+678.423+188.813C687.347+188.803+733.676+187.341+766.983+220.785" fill="none" stroke-linecap="round" opacity="1" stroke-linejoin="round"/>
<path stroke="#722a48" stroke-width="4" d="M573.91+375.49C573.91+353.541+591.703+335.747+613.652+335.747C635.601+335.747+653.395+353.541+653.395+375.49C653.395+397.439+635.601+415.232+613.652+415.232C591.703+415.232+573.91+397.439+573.91+375.49Z" fill="#722a48" stroke-linecap="round" opacity="1" stroke-linejoin="round"/>
</g>
<path d="M512+388.682L546.28+417.289L512+512L477.72+417.289L512+388.682Z" opacity="1" fill="url(#LinearGradient_21)"/>
<g opacity="1">
<path stroke="#475175" stroke-width="4" d="M884.437+838.569C884.437+838.569+831.276+824.838+737.977+824.838C621.739+824.838+560.475+843.472+560.475+843.472C560.475+843.472+559.239+864.283+549.646+876.69C538.031+891.712+517.714+895.163+512.132+895.163C506.275+895.163+486.233+891.712+474.617+876.69C465.024+864.283+463.239+843.435+463.239+843.435C463.239+843.435+402.524+824.838+286.286+824.838C192.987+824.838+146.818+838.089+139.827+839.569" fill="none" stroke-linecap="round" opacity="1" stroke-linejoin="round"/>
<path stroke="#475175" stroke-width="4" d="M877.116+831.438C877.116+831.438+831.112+818.996+737.813+818.996C621.575+818.996+558.314+841.148+558.314+841.148C558.314+841.148+554.13+864.143+547.587+871.884C539.715+881.197+525.608+887.321+511.967+887.321C498.361+887.321+484.219+881.197+476.347+871.884C469.804+864.143+465.62+841.148+465.62+841.148C465.62+841.148+402.359+818.996+286.122+818.996C192.822+818.996+153.95+829.945+146.818+831.438" fill="none" stroke-linecap="round" opacity="1" stroke-linejoin="round"/>
<path stroke="#475175" stroke-width="4" d="M869.984+824.103C863.292+822.768+824.631+814.418+737.813+814.153C621.575+813.799+555.16+839.947+555.16+839.947C555.16+839.947+552.086+860.987+545.323+868.699C537.322+877.823+528.645+882.478+511.967+882.478C495.289+882.478+486.612+877.823+478.611+868.699C471.848+860.987+468.774+839.947+468.774+839.947C468.774+839.947+402.359+813.799+286.122+814.153C199.303+814.418+160.642+822.768+153.95+824.103" fill="none" stroke-linecap="round" opacity="1" stroke-linejoin="round"/>
<path stroke="#475175" stroke-width="4" d="M863.292+817.26C856.701+815.871+824.631+809.575+737.813+809.311C621.575+808.957+552.074+838.771+552.074+838.771C552.074+838.771+548.953+858.265+543.106+865.418C535.957+874.163+527.536+877.635+511.967+877.635C496.398+877.635+487.977+874.163+480.828+865.418C474.981+858.265+471.86+838.771+471.86+838.771C471.86+838.771+402.359+808.957+286.122+809.311C199.303+809.575+167.233+815.871+160.642+817.26" fill="none" stroke-linecap="round" opacity="1" stroke-linejoin="round"/>
<path stroke="#475175" stroke-width="4" d="M856.913+810.86C852.662+810.27+816.937+804.468+737.813+804.468C621.575+804.468+548.66+837.471+548.66+837.471C548.66+837.471+545.956+855.914+540.225+861.873C533.639+868.722+526.096+872.793+511.967+872.793C497.838+872.793+490.295+868.722+483.709+861.873C477.979+855.914+475.274+837.471+475.274+837.471C475.274+837.471+402.359+804.468+286.122+804.468C206.997+804.468+170.272+810.27+166.021+810.86" fill="none" stroke-linecap="round" opacity="1" stroke-linejoin="round"/>
<path stroke="#475175" stroke-width="4" d="M851.387+805.238C846.81+804.639+803.551+799.626+737.813+799.626C621.575+799.626+545.102+836.116+545.102+836.116C545.102+836.116+542.37+853.158+537.452+858.494C531.887+864.53+524.709+867.95+511.967+867.95C499.225+867.95+492.047+864.53+486.482+858.494C481.564+853.158+478.832+836.116+478.832+836.116C478.832+836.116+402.359+799.626+286.122+799.626C220.383+799.626+171.547+804.238+171.547+804.238" fill="none" stroke-linecap="round" opacity="1" stroke-linejoin="round"/>
<path stroke="#475175" stroke-width="4" d="M839.476+793.777C839.476+793.777+796.95+789.941+737.813+789.941C621.575+789.941+537.16+833.092+537.16+833.092C537.16+833.092+535.688+845.843+531.458+850.182C527.072+854.682+521.713+858.265+511.967+858.265C502.221+858.265+496.863+854.682+492.476+850.182C488.246+845.843+486.774+833.092+486.774+833.092C486.774+833.092+402.359+789.941+286.122+789.941C226.984+789.941+190.228+790.812+183.458+791.777" fill="none" stroke-linecap="round" opacity="1" stroke-linejoin="round"/>
<path stroke="#475175" stroke-width="4" d="M832.851+787.941C832.851+787.941+806.133+785.098+737.813+785.098C621.575+785.098+533.082+831.539+533.082+831.539C533.082+831.539+532.321+841.916+528.648+846.15C524.509+850.922+520.308+853.423+511.967+853.423C503.627+853.423+499.425+850.922+495.286+846.15C491.613+841.916+490.852+831.539+490.852+831.539C490.852+831.539+402.359+785.098+286.122+785.098C217.801+785.098+197.51+784.954+190.083+785.941" fill="none" stroke-linecap="round" opacity="1" stroke-linejoin="round"/>
<path stroke="#475175" stroke-width="4" d="M826.6+782.098C815.957+781.395+800.683+780.255+737.813+780.255C621.575+780.255+529.179+830.052+529.179+830.052C529.179+830.052+528.513+839.026+525.487+842.381C522.235+845.986+516.396+848.58+511.967+848.58C507.184+848.58+501.41+845.921+498.447+842.381C495.548+838.916+494.755+830.052+494.755+830.052C494.755+830.052+402.359+780.255+286.122+780.255C223.251+780.255+206.576+778.587+196.334+780.098" fill="none" stroke-linecap="round" opacity="1" stroke-linejoin="round"/>
<path stroke="#475175" stroke-width="4" d="M820.735+776.238C813.199+775.732+803.5+775.413+737.813+775.413C621.575+775.413+525.178+828.529+525.178+828.529C525.178+828.529+525.056+834.052+522.254+837.433C517.813+842.792+514.839+843.738+511.967+843.738C508.741+843.738+506.121+842.792+501.68+837.433C498.878+834.052+498.756+828.529+498.756+828.529C498.756+828.529+402.359+775.413+286.122+775.413C220.434+775.413+210.951+773.297+203.199+774.238" fill="none" stroke-linecap="round" opacity="1" stroke-linejoin="round"/>
<path stroke="#475175" stroke-width="4" d="M814.183+770.476C806.647+770.418+794.372+770.57+737.813+770.57C621.575+770.57+521.803+827.244+521.803+827.244C521.803+827.244+521.551+831.137+519.367+833.788C517.051+836.598+514.515+838.895+511.967+838.895C509.909+838.895+506.883+836.598+504.568+833.788C502.383+831.137+502.131+827.244+502.131+827.244C502.131+827.244+402.359+770.57+286.122+770.57C229.562+770.57+216.195+767.299+208.751+768.476" fill="none" stroke-linecap="round" opacity="1" stroke-linejoin="round"/>
<path stroke="#475175" stroke-width="4" d="M809.489+765.739C802.94+765.683+791.058+765.728+737.977+765.728C621.739+765.728+518.777+825.966+518.777+825.966C518.777+825.966+519.08+828.714+517.521+830.834C515.915+833.018+513.929+834.052+512.132+834.052C510.435+834.052+508.348+833.018+506.742+830.834C505.183+828.714+505.486+825.966+505.486+825.966C505.486+825.966+402.524+765.728+286.286+765.728C233.205+765.728+220.182+761.383+213.774+762.739" fill="none" stroke-linecap="round" opacity="1" stroke-linejoin="round"/>
<path stroke="#475175" stroke-width="4" d="M803.752+761.287C803.752+761.287+780.571+760.885+737.813+760.885C621.575+760.885+515.313+824.772+515.313+824.772C515.313+824.772+515.256+826.513+514.8+827.457C513.952+829.21+512.299+829.21+511.967+829.21C511.635+829.21+509.982+829.21+509.135+827.457C508.678+826.513+508.621+824.772+508.621+824.772C508.621+824.772+402.359+760.885+286.122+760.885C243.363+760.885+229.462+757.046+220.182+757.287" fill="none" stroke-linecap="round" opacity="1" stroke-linejoin="round"/>
<path stroke="#475175" stroke-width="4" d="M798.189+756.049C795.25+756.003+783.101+755.778+737.807+755.778C621.569+755.778+511.964+824.103+511.964+824.103C511.964+824.103+402.359+755.778+286.122+755.778C240.828+755.778+226.74+752.049+226.74+752.049" fill="none" stroke-linecap="round" opacity="1" stroke-linejoin="round"/>
<path stroke="#475175" stroke-width="4" d="M845.14+799.616C839.476+799.428+809.624+794.783+737.813+794.783C621.575+794.783+541.111+834.596+541.111+834.596C541.111+834.596+539.206+849.688+534.437+854.317C528.439+860.14+523.202+863.108+511.967+863.108C500.732+863.108+495.495+860.14+489.497+854.317C484.728+849.688+482.823+834.596+482.823+834.596C482.823+834.596+402.359+794.783+286.122+794.783C214.31+794.783+184.458+797.428+178.794+797.616" fill="none" stroke-linecap="round" opacity="1" stroke-linejoin="round"/>
<path stroke="#475175" stroke-width="4" d="M511.325+823.908L463.886+843.701L467.329+860.912L473.998+872.53L482.388+881.35L492.285+886.514L502.611+890.064L509.711+892L518.424+891.247L526.277+888.88L533.914+885.653L539.508+881.888L544.779+877.586L549.834+872.207L554.567+858.869L558.87+844.562L511.325+823.908Z" fill="#475175" stroke-linecap="round" opacity="1" stroke-linejoin="round"/>
</g>
</g>
</svg>
